<?xml version="1.0" encoding="utf-8"?>
<!-- Generator: Adobe Illustrator 25.3.1, SVG Export Plug-In . SVG Version: 6.00 Build 0)  -->
<svg version="1.1" id="Layer_1" xmlns="http://www.w3.org/2000/svg" xmlns:xlink="http://www.w3.org/1999/xlink" x="0px" y="0px"
	 viewBox="0 0 808.2 117.3" style="enable-background:new 0 0 808.2 117.3;" xml:space="preserve">
<style type="text/css">
	.st0{display:none;fill:#FFFFFF;}
	.st1{fill:#5D548C;}
</style>
<path class="st0" d="M193.3,38c-2.6-7.8-5.5-14.8-8.9-22.1c-1.2-2.7-5-2.8-6.1-0.1l-3.4,8.6c-0.2,0.6-0.7,0.9-1.3,1
	c-2.9,0.2-11.5,1.5-14.8,8.2h-14.4c-2,0-3.5,1.7-3.2,3.7c1,6.8,4.9,20.4,20.5,20.4h9.5c5.4,0-3.6,14.5-6.1,23.5
	c0.2,0,0.4,0.1,0.6,0.1c1.3,0.1,2.7,0.2,4,0.2c9.1,0,17.7-3.4,23.9-9.4V80h7.7c-0.5-8.8-1.7-17.6-3.6-26.2
	C196.5,48.5,195.1,43.2,193.3,38z"/>
<g>
	<polygon class="st1" points="83.8,80 64.6,28.5 45.1,80 26.6,80 0,-0.2 20.3,0 36.7,50.8 55.4,0 74.1,0 92.6,50.9 109.5,0 129.8,0 
		102,80 	"/>
	<path class="st1" d="M266.2,117.3c-18.4,0-32.8-8.2-39.6-22.6l-0.7-1.5l18.3-8.7l0.7,1.6c3.9,8.5,11,12.8,21.3,12.8
		c12.4,0,20.7-8.7,20.7-21.7V72c-6.2,6-15.1,9.6-24,9.6C243.3,81.6,223,66.1,223,40c0-27,20.6-41.6,40-41.6c8.9,0,17.5,3.4,23.7,9.3
		V0h19.8v76.5C306.5,101.3,290.7,117.3,266.2,117.3z M265.1,16.8c-12.6,0-22.5,10.1-22.5,23.1s9.9,23.3,22.5,23.3
		s22.5-10.2,22.5-23.3C287.6,26.9,277.8,16.8,265.1,16.8z"/>
	<path class="st1" d="M359.5,117.3c-18.4,0-32.8-8.2-39.6-22.6l-0.7-1.5l18.3-8.7l0.7,1.6c3.9,8.5,11,12.8,21.3,12.8
		c12.4,0,20.7-8.7,20.7-21.7V72c-6.2,6-15.1,9.6-24,9.6c-19.6,0-39.9-15.5-39.9-41.6c0-27,20.6-41.6,40-41.6
		c8.9,0,17.5,3.4,23.7,9.3V0h19.9v76.5C399.9,101.3,384,117.3,359.5,117.3z M358.5,16.8c-12.6,0-22.5,10.1-22.5,23.1
		s9.9,23.3,22.5,23.3S381,53,381,39.9C381,26.9,371.1,16.8,358.5,16.8z"/>
	<path class="st1" d="M445.1,81.6c-20.7,0-33.1-13.2-33.1-35.3V0h20.1v44.9c0,12.1,6,18.8,16.8,18.8c10.5,0,17.6-8,17.6-19.9V0h19.8
		v80h-19.7v-7C461,78.5,453.4,81.6,445.1,81.6z"/>
	<path class="st1" d="M500.6,80V0h19.8v8.3c4.8-5.5,11.8-8.3,20.7-8.3h9.1v19.1h-11.7c-12.7,0-17.9,6.2-17.9,21.3V80H500.6z"/>
	<path class="st1" d="M687,81.6c-23.4,0-41.7-18.3-41.7-41.6S663.6-1.6,687-1.6c17,0,31.5,9.4,37.9,24.5l0.7,1.6l-17.9,7.6l-0.7-1.6
		c-3.7-8.5-11-13.4-20-13.4c-12.4,0-22.2,10-22.2,22.8s9.9,22.8,22.5,22.8c8.9,0,16.4-5.2,20-14l0.7-1.6l18.1,7.6l-0.7,1.6
		C718.4,72.4,704.5,81.6,687,81.6z"/>
	<polygon class="st1" points="739.9,115.4 757,74.4 724.5,0 745.9,0 767.1,50.4 787.1,0 808.2,0 760.5,115.4 	"/>
	<path class="st1" d="M193.6,0v7.4c-6.1-5.6-14.8-8.9-23.7-8.9c-19.4,0-40,14.6-40,41.6c0,23.9,17.2,39,35.2,41.2
		c2.5-9,11.5-23.5,6.1-23.5h-9.5c-15.5,0-19.5-13.7-20.5-20.4c-0.3-2,1.2-3.7,3.2-3.7h14.5c3.3-6.7,11.9-7.9,14.8-8.2
		c0.6,0,1.1-0.4,1.3-1l3.4-8.6c1.1-2.8,4.8-2.7,6.1,0.1c3.3,7.3,6.3,14.3,8.9,22.1c1.7,5.1,3.2,10.5,4.3,15.7
		c1.9,8.6,3.1,17.4,3.6,26.2h5.9h6.2V0H193.6z"/>
	<path class="st1" d="M616.1-0.1v7.4c-6.1-5.6-14.8-8.9-23.7-8.9c-19.4,0-40,14.6-40,41.6c0,24,17.2,39,35.2,41.3
		c-1.4-8.1,9.2-26.1,1.7-24.9c-1,0.2-2.1,0.2-3.3,0.2c-9.7,0-15.5-9.1-17.3-12.6c-0.4-0.7-0.1-1.7,0.6-2.1l3.8-2.4
		c0,0,0.8-13.5,15.7-14v-6.7c0-1.1,1-1.9,2-1.6c12.5,3.9,20.8,15.9,25.7,28.2c4.3,10.8,6.9,22.9,7.5,34.7h5.3h6.6v-80h-19.8V-0.1z"
		/>
</g>
<path class="st0" d="M590.7,17.1c-1-0.3-2,0.5-2,1.6v6.7c-15,0.5-15.7,14-15.7,14l-3.8,2.4c-0.7,0.5-1,1.4-0.6,2.1
	c1.8,3.5,7.6,12.6,17.3,12.6c1.2,0,2.3-0.1,3.3-0.2c7.5-1.2-3,16.8-1.7,24.9c0.3,0,0.5,0.1,0.8,0.1c1.3,0.1,2.6,0.2,3.9,0.2
	c9.1,0,17.7-3.4,23.9-9.4V80h7.9c-0.6-11.8-3.2-23.9-7.5-34.7C611.5,33,603.2,21,590.7,17.1z"/>
</svg>
